<svg width="952" height="1071" viewBox="0 0 952 1071" fill="none" xmlns="http://www.w3.org/2000/svg">
<g clip-path="url(#clip0_21_2)">
<path d="M412.371 1053.61L390.004 1053.61L379.363 958.794L412.375 958.797L412.371 1053.61Z" fill="#A0616A"/>
<path d="M335.738 1053.06C335.042 1054.34 334.674 1058.51 334.674 1060C334.674 1064.61 338.073 1068.35 342.266 1068.35H411.534C414.394 1068.35 416.713 1065.8 416.713 1062.66V1059.49C416.713 1059.49 420.14 1049.96 413.085 1038.22C413.085 1038.22 404.317 1047.41 391.215 1033.01L387.351 1025.32L359.383 1047.8L343.881 1049.9C340.49 1050.36 337.483 1049.83 335.738 1053.06Z" fill="#2F2E41"/>
<path d="M312.154 1053.61L289.787 1053.61L279.147 958.794L312.159 958.797L312.154 1053.61Z" fill="#A0616A"/>
<path d="M235.521 1053.06C234.825 1054.34 234.458 1058.51 234.458 1060C234.458 1064.61 237.856 1068.35 242.049 1068.35H311.318C314.178 1068.35 316.497 1065.8 316.497 1062.66V1059.49C316.497 1059.49 319.923 1049.96 312.868 1038.22C312.868 1038.22 304.1 1047.41 290.998 1033.01L287.134 1025.32L259.167 1047.8L243.665 1049.9C240.273 1050.36 237.266 1049.83 235.521 1053.06Z" fill="#2F2E41"/>
<path d="M414.291 458.759L435.115 517.405L418.847 985.857H373.294L332.296 563.177L322.534 987.287L278.283 985.857L230.127 515.259L262.014 473.062L414.291 458.759Z" fill="#2F2E41"/>
<path d="M316.027 126.193L370.691 121.902L387.61 151.94L438.369 167.674L419.497 312.859L439.671 529.563C439.671 529.563 366.786 518.12 361.58 541.006C356.374 563.892 228.825 518.12 228.825 518.12L272.426 370.074L268.522 254.213L256.808 186.985L310.17 159.807L316.027 126.193Z" fill="#E6E6E6"/>
<path d="M291.298 169.105C291.298 169.105 247.738 168.39 241.861 188.415C235.984 208.44 216.461 347.188 216.461 347.188L201.494 407.98L268.522 371.505L254.205 347.228L301.06 248.491L291.298 169.105Z" fill="#E6E6E6"/>
<path d="M317.946 391.53C325.149 391.539 331.845 386.976 334.645 379.684C336.763 374.168 336.563 368.877 334.978 364.34C335.488 364.108 335.994 363.866 336.516 363.661C335.749 363.319 335.004 362.933 334.259 362.547C331.664 356.864 326.69 352.739 320.765 351.738C313.427 343.098 308.916 331.522 308.869 318.782C308.772 292.524 328.153 270.591 352.038 269.962C352.226 269.957 352.414 269.953 352.602 269.951C363.297 269.815 372.999 276.39 378.418 286.526C381.58 292.439 387.423 296.409 394.118 296.409C399.243 296.409 403.866 294.081 407.171 290.335C414.371 282.174 423.388 276.102 433.591 274.239C440.292 273.016 447.227 272.554 454.323 272.942C502.896 275.595 544.685 322.908 545.722 376.344C546.877 435.86 503.324 484.506 449.432 484.506C421.391 484.506 396.16 471.326 378.564 450.303C370.752 440.969 359.805 435.741 348.267 435.87C348.149 435.872 348.032 435.872 347.914 435.872C329.225 435.872 314.075 419.222 314.075 398.682C314.075 397.543 314.126 396.418 314.223 395.307C314.404 393.23 316.048 391.528 317.946 391.53Z" fill="#6C63FF"/>
<path d="M947.432 787.59C945.068 783.208 934.841 787.899 932.96 783.923C931.087 779.962 940.589 773.925 946.018 760.136C946.997 757.649 953.167 741.978 948.6 737.142C939.942 727.977 900.326 765.801 886.462 753.423C883.42 750.707 881.294 745.284 872.086 736.479C868.422 732.977 866.207 731.395 864.063 731.984C861.021 732.819 860.78 737.293 857.518 746.091C852.626 759.284 849.733 758.488 846.883 769.014C844.767 776.828 845.25 781.372 842.761 782.257C839.237 783.509 835.994 775.221 831.529 775.963C826.973 776.72 824.218 786.371 823.348 793.596C821.715 807.156 826.246 816.103 828.757 825.511C831.486 835.735 833.106 851.284 826.804 873.296L764.424 1066.45C778.196 1026.82 818.071 918.167 834.826 877.792C839.663 866.136 845.004 854.314 855.97 849.648C866.528 845.155 881.028 847.837 899.513 842.943C901.672 842.372 907.663 840.697 908.417 836.824C909.04 833.622 905.516 831.835 906.058 828.836C906.784 824.814 913.714 824.765 922.23 820.124C928.234 816.852 931.975 812.961 935.192 809.614C936.162 808.605 950.58 793.422 947.432 787.59Z" fill="#F2F2F2"/>
<path d="M702.013 889.276C699.375 889.287 698.519 896.157 696.2 896.024C693.891 895.892 693.937 889.024 689.345 882.117C688.517 880.872 683.298 873.022 679.821 874.09C673.23 876.116 678.691 908.398 669.163 912.305C667.072 913.163 664.037 912.745 657.448 915.171C654.827 916.137 653.482 916.875 653.126 918.202C652.621 920.083 654.55 921.504 657.537 925.802C662.018 932.248 660.827 933.579 664.706 938.153C667.585 941.549 669.754 942.599 669.431 944.198C668.973 946.46 664.336 945.817 663.379 948.44C662.403 951.116 665.918 955.387 668.893 957.941C674.478 962.734 679.781 962.871 684.707 964.231C690.06 965.709 697.472 969.322 705.483 979.073L773.746 1068.45C760.019 1049.59 723.002 996.73 709.806 976.042C705.996 970.07 702.257 963.778 703.338 956.517C704.378 949.526 709.759 942.478 712.907 931.095C713.275 929.766 714.255 926.051 712.743 924.527C711.493 923.267 709.679 924.652 708.496 923.494C706.909 921.942 708.886 918.19 709.271 912.258C709.542 908.074 708.884 904.934 708.317 902.233C708.147 901.419 705.526 889.261 702.013 889.276Z" fill="#F2F2F2"/>
<path d="M754.655 902.263L753.065 886.666L753.792 885.484C757.153 880.016 758.866 874.676 758.886 869.608C758.89 868.802 758.856 867.996 758.821 867.175C758.684 863.922 758.513 859.878 760.432 855.163C761.508 852.535 764.529 846.45 769.073 847.203C770.296 847.391 771.221 848.009 771.923 848.732C772.026 848.551 772.132 848.37 772.245 848.175C773.66 845.802 774.781 844.786 775.86 843.807C776.689 843.053 777.546 842.278 778.889 840.44C779.478 839.634 779.937 838.926 780.325 838.331C781.5 836.532 783.035 834.385 785.742 834.423C788.633 834.573 790.148 837.202 791.152 838.942C792.943 842.044 793.756 844.281 794.293 845.765C794.489 846.307 794.711 846.917 794.825 847.105C795.756 848.611 803.332 847.203 806.186 846.691C812.597 845.516 818.144 844.499 820.429 848.943C822.067 852.121 820.851 856.323 816.705 861.768C815.413 863.463 814.039 864.751 812.819 865.76C813.83 866.422 814.735 867.439 815.101 869.036C815.965 872.816 813.008 876.604 806.316 880.31C804.655 881.236 802.417 882.471 799.282 883.066C797.805 883.345 796.476 883.412 795.338 883.45C795.315 884.173 795.16 884.956 794.759 885.762C793.584 888.134 791.138 889.264 787.451 888.993C783.394 888.76 780.054 887.909 777.107 887.163C774.534 886.515 772.317 885.966 770.577 886.094C767.349 886.38 764.862 889.219 761.943 892.902L754.655 902.263Z" fill="#F2F2F2"/>
<path d="M762.03 809.399L748.705 815.045L747.481 814.573C741.816 812.387 736.682 811.92 732.215 813.183C731.505 813.384 730.805 813.625 730.091 813.87C727.262 814.841 723.746 816.049 719.11 815.205C716.524 814.728 710.402 813.058 709.912 808.038C709.768 806.69 710.076 805.55 710.535 804.619C710.349 804.556 710.163 804.489 709.962 804.418C707.516 803.516 706.337 802.583 705.201 801.684C704.328 800.993 703.428 800.279 701.47 799.318C700.611 798.896 699.872 798.587 699.25 798.326C697.367 797.534 695.089 796.446 694.436 793.559C693.835 790.447 695.764 788.17 697.04 786.662C699.317 783.97 701.079 782.539 702.249 781.591C702.677 781.246 703.157 780.854 703.294 780.686C704.383 779.313 701.222 771.617 700.048 768.713C697.388 762.196 695.086 756.557 698.417 753.001C700.799 750.453 704.806 750.681 710.65 753.707C712.469 754.65 713.951 755.784 715.148 756.825C715.475 755.582 716.141 754.363 717.453 753.568C720.561 751.691 724.645 753.874 729.604 760.047C730.841 761.579 732.495 763.644 733.814 766.826C734.434 768.325 734.831 769.721 735.152 770.921C735.795 770.763 736.523 770.728 737.334 770.95C739.72 771.598 741.335 773.912 742.032 777.9C742.855 782.272 742.953 786.039 743.045 789.36C743.127 792.26 743.206 794.756 743.76 796.574C744.83 799.933 747.96 801.857 751.942 804.026L762.03 809.399Z" fill="#F2F2F2"/>
<path d="M754.655 763.45L753.065 747.853L753.792 746.671C757.153 741.203 758.866 735.864 758.886 730.795C758.89 729.989 758.856 729.184 758.821 728.363C758.684 725.109 758.513 721.065 760.432 716.351C761.508 713.722 764.529 707.637 769.073 708.39C770.296 708.579 771.221 709.196 771.923 709.919C772.026 709.738 772.132 709.558 772.245 709.362C773.66 706.99 774.781 705.973 775.86 704.994C776.689 704.241 777.546 703.465 778.889 701.627C779.478 700.822 779.937 700.114 780.325 699.519C781.5 697.719 783.035 695.572 785.742 695.61C788.633 695.761 790.148 698.389 791.152 700.129C792.943 703.232 793.756 705.468 794.293 706.952C794.489 707.494 794.711 708.104 794.825 708.292C795.756 709.799 803.332 708.39 806.186 707.878C812.597 706.703 818.144 705.687 820.429 710.13C822.067 713.308 820.851 717.51 816.705 722.955C815.413 724.65 814.039 725.938 812.819 726.947C813.83 727.61 814.735 728.626 815.101 730.223C815.965 734.004 813.008 737.792 806.316 741.497C804.655 742.423 802.417 743.658 799.282 744.253C797.805 744.532 796.476 744.6 795.338 744.637C795.315 745.36 795.16 746.144 794.759 746.949C793.584 749.322 791.138 750.451 787.451 750.18C783.394 749.947 780.054 749.096 777.107 748.35C774.534 747.703 772.317 747.153 770.577 747.281C767.349 747.567 764.862 750.406 761.943 754.089L754.655 763.45Z" fill="#F2F2F2"/>
<path d="M769.175 1066.2L766.201 1064.15L762.734 1064.59C762.679 1064.23 762.491 1063.42 762.206 1062.15C760.654 1055.17 755.923 1033.95 751.976 1000.53C749.221 977.197 747.662 953.211 747.34 929.224C747.018 905.2 748.052 887.012 748.882 872.395C749.509 861.369 750.269 850.871 751.016 840.644C753.003 813.321 754.878 787.512 753.483 758.939C753.175 752.56 752.527 739.283 745.469 725.155C741.375 716.961 735.735 709.686 728.704 703.54L733.076 697.5C740.837 704.294 747.076 712.352 751.623 721.449C759.448 737.114 760.154 751.581 760.493 758.532C761.912 787.61 760.017 813.667 758.009 841.254C757.269 851.443 756.508 861.896 755.885 872.877C755.063 887.359 754.038 905.388 754.357 929.104C754.672 952.804 756.214 976.497 758.931 999.534C762.83 1032.54 767.493 1053.44 769.025 1060.31C769.84 1063.98 770.011 1064.75 769.175 1066.2Z" fill="#F2F2F2"/>
<path d="M715.835 715.793C715.548 715.793 715.256 715.786 714.962 715.763C708.986 715.409 703.453 711.478 698.512 704.083C696.196 700.603 695.011 696.634 692.646 688.719C692.28 687.499 690.498 681.309 689.415 672.791C688.706 667.226 688.795 664.898 689.799 662.842C690.913 660.553 692.715 658.956 694.743 657.88C694.654 657.141 694.726 656.381 695.017 655.605C696.213 652.389 699.393 652.811 701.113 653.014C701.983 653.135 703.069 653.293 704.241 653.225C706.084 653.127 707.074 652.525 708.575 651.621C710.011 650.755 711.796 649.678 714.444 649.083C719.666 647.886 724.041 649.512 725.484 650.047C733.073 652.826 736.814 659.31 741.145 666.819C742.009 668.325 744.972 673.808 746.929 681.324C748.34 686.746 748.142 689.156 747.717 690.948C746.853 694.631 744.815 696.74 739.638 701.394C734.231 706.267 731.517 708.707 729.188 710.19C723.764 713.632 720.358 715.793 715.835 715.793Z" fill="#F2F2F2"/>
<path d="M478.066 360.062L153.989 292.833L152.687 318.58L474.161 402.973L478.066 360.062Z" fill="#6C63FF"/>
<path d="M157.893 297.125L153.988 292.833C153.988 292.833 137.069 284.251 137.069 282.821C137.069 281.925 112.084 272.624 93.3914 265.791C82.9519 261.975 71.9269 269.527 70.4404 281.507L68.0979 300.386C66.6973 311.674 74.4472 321.835 84.8054 322.29L130.561 324.302L152.687 318.58L157.893 297.125Z" fill="#6C63FF"/>
<path d="M477.415 367.929L478.188 364.365L153.903 296.231L153.338 300.701L477.415 367.929Z" fill="#3F3D56"/>
<path d="M476.672 374.695L477.415 370.79L153.551 303.283L153.338 307.852L476.672 374.695Z" fill="#3F3D56"/>
<path d="M475.929 382.804L476.113 376.511L153.296 308.418L153.338 312.144L475.929 382.804Z" fill="#3F3D56"/>
<path d="M475.064 392.222L474.812 386.524L152.825 313.552L152.548 314.949L475.064 392.222Z" fill="#3F3D56"/>
<path d="M475.058 397.932L474.812 393.676L153.31 315.912L153.021 317.306L475.058 397.932Z" fill="#3F3D56"/>
<path d="M288.839 159.985L304.964 150.172L311.958 307.137L309.519 326.448C309.519 326.448 268.809 203.074 288.839 159.985Z" fill="#3F3D56"/>
<path d="M344.01 111.174C366.293 111.174 384.356 91.3214 384.356 66.8319C384.356 42.3425 366.293 22.4899 344.01 22.4899C321.727 22.4899 303.663 42.3425 303.663 66.8319C303.663 91.3214 321.727 111.174 344.01 111.174Z" fill="#A0616A"/>
<path d="M309.519 93.2941L319.165 101.757L308.218 56.104C308.218 56.104 338.803 55.3888 341.406 36.7937C341.406 36.7937 365.484 36.0785 371.992 36.0785C378.5 36.0785 381.436 83.402 381.436 83.402C381.436 83.402 394.118 44.6609 381.103 24.6354C368.087 4.60998 372.643 16.7683 370.04 9.61636C367.437 2.46441 340.756 -4.11313 323.836 3.1796C306.916 10.4723 306.266 20.868 301.059 20.9637C295.853 21.0595 277.632 49.6673 294.552 72.5535C311.472 95.4397 309.519 93.2941 309.519 93.2941Z" fill="#2F2E41"/>
<path d="M432.782 384.276C437.564 380.083 441.088 375.05 443.074 370.075L490.927 333.288L474.333 308.775L427.578 348.731C422.723 349.755 417.476 352.413 412.693 356.607C401.768 366.187 397.409 380.148 402.956 387.788C408.503 395.429 421.857 393.857 432.782 384.276Z" fill="#A0616A"/>
<path d="M249.448 328.319C245.9 333.797 243.771 339.701 243.107 345.084L206.304 394.916L228.392 413.468L263.346 360.921C267.758 358.47 272.137 354.327 275.686 348.85C283.792 336.337 284.49 321.597 277.245 315.928C270 310.259 257.555 315.806 249.448 328.319Z" fill="#A0616A"/>
<path d="M417.545 176.972C417.545 176.972 429.259 155.516 440.972 168.39C450.241 178.576 501.073 243.398 521.886 270.01C527.626 277.349 530.777 286.7 530.777 296.377C530.777 311.346 523.257 325.092 511.228 332.112L446.178 370.074L427.957 340.036L483.922 295.694L398.022 244.2L417.545 176.972Z" fill="#E6E6E6"/>
<path d="M211.855 374.695L201.494 407.98L231.428 425.144L254.205 407.98L268.522 371.505L226.222 357.916" fill="#E6E6E6"/>
<path d="M695.801 55.6835L597.475 85.0379L611.782 155.157C607.156 151.746 601.591 149.752 595.602 149.752C579.542 149.752 566.523 164.06 566.523 181.71C566.523 199.359 579.542 213.667 595.602 213.667C611.662 213.667 624.68 199.359 624.68 181.71C624.68 175.575 623.08 169.864 620.353 164.998L609.011 109.405L693.836 80.0953L701.594 121.507C696.937 118.025 691.316 115.987 685.26 115.987C669.201 115.987 656.182 130.295 656.182 147.945C656.182 165.595 669.201 179.903 685.26 179.903C701.32 179.903 714.339 165.595 714.339 147.945C714.339 141.745 712.706 135.977 709.925 131.077L695.801 55.6835Z" fill="#6C63FF"/>
<path d="M792.234 121.23C776.341 121.23 763.457 135.39 763.457 152.856C763.457 157.794 764.516 162.449 766.352 166.612L782.776 241.07L792.099 238.586L779.429 181.148C783.289 183.263 787.627 184.482 792.234 184.482C808.126 184.482 821.01 170.323 821.01 152.856C821.01 135.39 808.126 121.23 792.234 121.23Z" fill="#6C63FF"/>
<path d="M909.341 285.334L893.036 213.667L883.138 216.224L895.891 272.281C891.969 270.329 887.61 269.207 882.995 269.207C866.121 269.207 852.442 283.783 852.442 301.764C852.442 319.745 866.121 334.321 882.995 334.321C899.869 334.321 913.548 319.745 913.548 301.764C913.548 295.763 911.998 290.161 909.341 285.334Z" fill="#6C63FF"/>
<path d="M952 1068.79C952 1070.01 951.1 1071 949.989 1071H0V1066.58H949.989C951.1 1066.58 952 1067.57 952 1068.79Z" fill="#E6E6E6"/>
</g>
<defs>
<clipPath id="clip0_21_2">
<rect width="952" height="1071" fill="white"/>
</clipPath>
</defs>
</svg>
