<svg width="960" height="540" viewBox="0 0 960 540" fill="none" xmlns="http://www.w3.org/2000/svg">
<g clip-path="url(#clip0_23_2)">
<path d="M0 321L11.5 332.8C23 344.7 46 368.3 68.8 375.8C91.7 383.3 114.3 374.7 137.2 363.8C160 353 183 340 205.8 336C228.7 332 251.3 337 274.2 341.2C297 345.3 320 348.7 342.8 354.7C365.7 360.7 388.3 369.3 411.2 374.7C434 380 457 382 480 376.2C503 370.3 526 356.7 548.8 350.8C571.7 345 594.3 347 617.2 356C640 365 663 381 685.8 377.5C708.7 374 731.3 351 754.2 347.3C777 343.7 800 359.3 822.8 371.5C845.7 383.7 868.3 392.3 891.2 383.5C914 374.7 937 348.3 948.5 335.2L960 322V541H948.5C937 541 914 541 891.2 541C868.3 541 845.7 541 822.8 541C800 541 777 541 754.2 541C731.3 541 708.7 541 685.8 541C663 541 640 541 617.2 541C594.3 541 571.7 541 548.8 541C526 541 503 541 480 541C457 541 434 541 411.2 541C388.3 541 365.7 541 342.8 541C320 541 297 541 274.2 541C251.3 541 228.7 541 205.8 541C183 541 160 541 137.2 541C114.3 541 91.7 541 68.8 541C46 541 23 541 11.5 541H0V321Z" fill="#F43F5E"/>
<path d="M0 430L11.5 420.3C23 410.7 46 391.3 68.8 379.2C91.7 367 114.3 362 137.2 367C160 372 183 387 205.8 391.2C228.7 395.3 251.3 388.7 274.2 385.3C297 382 320 382 342.8 388.5C365.7 395 388.3 408 411.2 407C434 406 457 391 480 384C503 377 526 378 548.8 386.7C571.7 395.3 594.3 411.7 617.2 409.8C640 408 663 388 685.8 379.5C708.7 371 731.3 374 754.2 379C777 384 800 391 822.8 398.8C845.7 406.7 868.3 415.3 891.2 408.3C914 401.3 937 378.7 948.5 367.3L960 356V541H948.5C937 541 914 541 891.2 541C868.3 541 845.7 541 822.8 541C800 541 777 541 754.2 541C731.3 541 708.7 541 685.8 541C663 541 640 541 617.2 541C594.3 541 571.7 541 548.8 541C526 541 503 541 480 541C457 541 434 541 411.2 541C388.3 541 365.7 541 342.8 541C320 541 297 541 274.2 541C251.3 541 228.7 541 205.8 541C183 541 160 541 137.2 541C114.3 541 91.7 541 68.8 541C46 541 23 541 11.5 541H0V430Z" fill="#E93761"/>
<path d="M0 426L11.5 429.3C23 432.7 46 439.3 68.8 436.8C91.7 434.3 114.3 422.7 137.2 418.7C160 414.7 183 418.3 205.8 422C228.7 425.7 251.3 429.3 274.2 424.8C297 420.3 320 407.7 342.8 401.2C365.7 394.7 388.3 394.3 411.2 397C434 399.7 457 405.3 480 416.2C503 427 526 443 548.8 440.2C571.7 437.3 594.3 415.7 617.2 405C640 394.3 663 394.7 685.8 396.5C708.7 398.3 731.3 401.7 754.2 408.5C777 415.3 800 425.7 822.8 427.8C845.7 430 868.3 424 891.2 420.7C914 417.3 937 416.7 948.5 416.3L960 416V541H948.5C937 541 914 541 891.2 541C868.3 541 845.7 541 822.8 541C800 541 777 541 754.2 541C731.3 541 708.7 541 685.8 541C663 541 640 541 617.2 541C594.3 541 571.7 541 548.8 541C526 541 503 541 480 541C457 541 434 541 411.2 541C388.3 541 365.7 541 342.8 541C320 541 297 541 274.2 541C251.3 541 228.7 541 205.8 541C183 541 160 541 137.2 541C114.3 541 91.7 541 68.8 541C46 541 23 541 11.5 541H0V426Z" fill="#DE2F64"/>
<path d="M0 467L11.5 464.2C23 461.3 46 455.7 68.8 450.7C91.7 445.7 114.3 441.3 137.2 442.3C160 443.3 183 449.7 205.8 456.5C228.7 463.3 251.3 470.7 274.2 475.3C297 480 320 482 342.8 481C365.7 480 388.3 476 411.2 474.8C434 473.7 457 475.3 480 470.7C503 466 526 455 548.8 448.8C571.7 442.7 594.3 441.3 617.2 446.7C640 452 663 464 685.8 463C708.7 462 731.3 448 754.2 442.5C777 437 800 440 822.8 447.8C845.7 455.7 868.3 468.3 891.2 470.2C914 472 937 463 948.5 458.5L960 454V541H948.5C937 541 914 541 891.2 541C868.3 541 845.7 541 822.8 541C800 541 777 541 754.2 541C731.3 541 708.7 541 685.8 541C663 541 640 541 617.2 541C594.3 541 571.7 541 548.8 541C526 541 503 541 480 541C457 541 434 541 411.2 541C388.3 541 365.7 541 342.8 541C320 541 297 541 274.2 541C251.3 541 228.7 541 205.8 541C183 541 160 541 137.2 541C114.3 541 91.7 541 68.8 541C46 541 23 541 11.5 541H0V467Z" fill="#D22866"/>
<path d="M0 494L11.5 492.8C23 491.7 46 489.3 68.8 490.3C91.7 491.3 114.3 495.7 137.2 494.3C160 493 183 486 205.8 484.7C228.7 483.3 251.3 487.7 274.2 491C297 494.3 320 496.7 342.8 494.8C365.7 493 388.3 487 411.2 489.5C434 492 457 503 480 503.5C503 504 526 494 548.8 491.2C571.7 488.3 594.3 492.7 617.2 495.2C640 497.7 663 498.3 685.8 497.2C708.7 496 731.3 493 754.2 491.2C777 489.3 800 488.7 822.8 488.8C845.7 489 868.3 490 891.2 492C914 494 937 497 948.5 498.5L960 500V541H948.5C937 541 914 541 891.2 541C868.3 541 845.7 541 822.8 541C800 541 777 541 754.2 541C731.3 541 708.7 541 685.8 541C663 541 640 541 617.2 541C594.3 541 571.7 541 548.8 541C526 541 503 541 480 541C457 541 434 541 411.2 541C388.3 541 365.7 541 342.8 541C320 541 297 541 274.2 541C251.3 541 228.7 541 205.8 541C183 541 160 541 137.2 541C114.3 541 91.7 541 68.8 541C46 541 23 541 11.5 541H0V494Z" fill="#C62368"/>
</g>
<defs>
<clipPath id="clip0_23_2">
<rect width="960" height="540" fill="white"/>
</clipPath>
</defs>
</svg>
